<svg xmlns="http://www.w3.org/2000/svg" width="1000" height="260" viewBox="0 0 1000 260"><rect width="1000" height="260" fill="white"/><line x1="0" y1="0" x2="0" y2="260" stroke="#d0d0d0" stroke-width="1"/><text x="3" y="14" fill="#666666" font-size="12" font-family="sans-serif">0s</text><line x1="200" y1="0" x2="200" y2="260" stroke="#d0d0d0" stroke-width="1"/><text x="203" y="14" fill="#666666" font-size="12" font-family="sans-serif">1s</text><line x1="400" y1="0" x2="400" y2="260" stroke="#d0d0d0" stroke-width="1"/><text x="403" y="14" fill="#666666" font-size="12" font-family="sans-serif">2s</text><line x1="599" y1="0" x2="599" y2="260" stroke="#d0d0d0" stroke-width="1"/><text x="602" y="14" fill="#666666" font-size="12" font-family="sans-serif">3s</text><line x1="799" y1="0" x2="799" y2="260" stroke="#d0d0d0" stroke-width="1"/><text x="802" y="14" fill="#666666" font-size="12" font-family="sans-serif">4s</text><line x1="999" y1="0" x2="999" y2="260" stroke="#d0d0d0" stroke-width="1"/><text x="1002" y="14" fill="#666666" font-size="12" font-family="sans-serif">5s</text><text x="4" y="254" fill="#666666" font-size="12" font-family="sans-serif">-16.1mm</text><text x="4" y="30" fill="#666666" font-size="12" font-family="sans-serif">54.0mm</text><polyline points="0.0,165.2 0.4,159.5 0.8,158.8 1.2,158.9 1.6,159.2 2.0,159.4 2.4,159.7 2.8,159.9 3.2,238.0 3.6,249.5 4.0,251.0 4.4,251.0 4.8,250.7 5.2,250.4 5.6,250.1 6.0,249.7 6.4,249.4 6.8,249.1 7.2,248.8 7.6,248.5 8.0,248.2 8.4,247.9 8.8,247.6 9.2,247.3 9.6,247.0 10.0,246.7 10.4,246.4 10.8,246.1 11.2,245.8 11.6,245.5 12.0,245.2 12.4,244.9 12.8,174.6 13.2,164.2 13.6,162.8 14.0,162.8 14.4,163.0 14.8,163.2 15.2,163.4 15.6,163.6 16.0,179.4 16.4,181.9 16.8,182.4 17.2,182.5 17.6,182.6 18.0,182.8 18.4,182.9 18.8,183.0 19.2,190.8 19.6,192.1 20.0,192.3 20.4,192.4 20.8,192.4 21.2,192.5 21.6,192.5 22.0,192.6 22.4,83.7 22.8,67.9 23.2,66.2 23.6,66.6 24.0,67.4 24.4,68.2 24.8,69.1 25.2,69.9 25.6,8.4 26.0,0.2 26.4,0.0 26.8,1.0 27.2,2.2 27.6,3.5 28.0,4.7 28.4,5.9 28.8,217.2 29.2,249.0 29.6,253.5 30.0,253.9 30.4,253.7 30.8,253.3 31.2,253.0 31.6,252.7 32.0,236.8 32.4,234.2 32.8,233.6 33.2,233.4 33.6,233.1 34.0,232.9 34.4,232.7 34.8,232.5 35.2,255.6 35.6,258.8 36.0,259.0 36.4,258.7 36.8,258.4 37.2,258.0 37.6,257.6 38.0,257.3 38.4,233.5 38.8,229.8 39.2,229.1 39.6,228.8 40.0,228.6 40.4,228.4 40.8,228.2 41.2,228.0 41.6,150.1 42.0,138.6 42.4,137.2 42.8,137.3 43.2,137.6 43.6,138.0 44.0,138.4 44.4,138.8 44.8,123.6 45.2,121.7 45.6,121.8 46.0,122.3 46.4,122.8 46.8,123.2 47.2,123.7 47.6,124.2 48.0,163.6 48.4,169.7 48.8,170.8 49.2,171.1 49.6,171.3 50.0,171.5 50.4,171.7 50.8,171.8 51.2,226.4 51.6,234.6 52.0,235.6 52.4,235.5 52.8,235.3 53.2,235.1 53.6,234.9 54.0,234.7 54.4,242.2 54.8,243.2 55.2,243.1 55.6,242.8 56.0,242.6 56.4,242.3 56.8,242.0 57.2,241.7 57.6,225.9 58.0,223.4 58.4,222.9 58.8,222.7 59.2,222.5 59.6,222.4 60.0,222.2 60.4,222.1 60.8,229.7 61.2,230.7 61.6,230.7 62.0,230.6 62.4,230.4 62.8,230.2 63.2,230.0 63.6,229.8 64.0,221.8 64.4,220.5 64.8,220.2 65.2,220.0 65.6,219.9 66.0,219.8 66.4,219.6 66.8,219.5 67.2,219.4 67.6,219.3 68.0,219.1 68.4,219.0 68.8,218.9 69.2,218.8 69.6,218.7 70.0,218.5 70.4,210.6 70.8,209.4 71.2,209.1 71.6,209.1 72.0,209.0 72.4,208.9 72.8,208.9 73.2,208.8 73.6,185.4 74.0,182.0 74.4,181.5 74.8,181.6 75.2,181.7 75.6,181.8 76.0,181.9 76.4,182.0 76.8,166.6 77.2,164.4 77.6,164.3 78.0,164.4 78.4,164.6 78.8,164.9 79.2,165.1 79.6,165.3 80.0,212.2 80.4,219.2 80.8,220.1 81.2,220.2 81.6,220.1 82.0,219.9 82.4,219.8 82.8,219.7 83.2,227.3 83.5,228.4 83.9,228.4 84.3,228.2 84.7,228.0 85.1,227.8 85.5,227.7 85.9,227.5 86.3,227.3 86.7,227.1 87.1,227.0 87.5,226.8 87.9,226.6 88.3,226.4 88.7,226.3 89.1,226.1 89.5,218.2 89.9,216.9 90.3,216.6 90.7,216.5 91.1,216.3 91.5,216.2 91.9,216.1 92.3,216.0 92.7,184.8 93.1,180.2 93.5,179.6 93.9,179.6 94.3,179.7 94.7,179.8 95.1,179.9 95.5,180.1 95.9,180.2 96.3,180.3 96.7,180.4 97.1,180.6 97.5,180.7 97.9,180.8 98.3,180.9 98.7,181.0 99.1,204.5 99.5,208.0 99.9,208.5 100.3,208.5 100.7,208.4 101.1,208.4 101.5,208.3 101.9,208.3 102.3,208.2 102.7,208.2 103.1,208.1 103.5,208.1 103.9,208.0 104.3,208.0 104.7,207.9 105.1,207.9 105.5,207.8 105.9,207.8 106.3,207.7 106.7,207.7 107.1,207.6 107.5,207.6 107.9,207.5 108.3,207.5 108.7,207.4 109.1,207.4 109.5,207.3 109.9,207.2 110.3,207.2 110.7,207.2 111.1,207.1 111.5,207.1 111.9,207.0 112.3,207.0 112.7,206.9 113.1,206.9 113.5,206.8 113.9,206.8 114.3,206.7 114.7,206.7 115.1,214.4 115.5,215.5 115.9,215.6 116.3,215.5 116.7,215.4 117.1,215.3 117.5,215.2 117.9,215.1 118.3,207.2 118.7,206.0 119.1,205.8 119.5,205.7 119.9,205.7 120.3,205.6 120.7,205.6 121.1,205.6 121.5,190.0 121.9,187.7 122.3,187.4 122.7,187.4 123.1,187.5 123.5,187.6 123.9,187.6 124.3,187.7 124.7,187.8 125.1,187.9 125.5,187.9 125.9,188.0 126.3,188.1 126.7,188.2 127.1,188.2 127.5,188.3 127.9,196.1 128.3,197.4 128.7,197.5 129.1,197.6 129.5,197.6 129.9,197.6 130.3,197.6 130.7,197.6 131.1,205.4 131.5,206.6 131.9,206.7 132.3,206.7 132.7,206.6 133.1,206.6 133.5,206.5 133.9,206.5 134.3,214.2 134.7,215.3 135.1,215.4 135.5,215.3 135.9,215.2 136.3,215.1 136.7,215.1 137.1,215.0 137.5,214.9 137.9,214.7 138.3,214.7 138.7,214.6 139.1,214.5 139.5,214.4 139.9,214.3 140.3,214.2 140.7,206.3 141.1,205.1 141.5,204.9 141.9,204.8 142.3,204.8 142.7,204.8 143.1,204.7 143.5,204.7 143.9,204.7 144.3,204.6 144.7,204.6 145.1,204.6 145.5,204.5 145.9,204.5 146.3,204.5 146.7,204.4 147.1,204.4 147.5,204.4 147.9,204.3 148.3,204.3 148.7,204.3 149.1,204.2 149.5,204.2 149.9,204.2 150.3,204.2 150.7,204.1 151.1,204.1 151.5,204.1 151.9,204.0 152.3,204.0 152.7,204.0 153.1,204.0 153.5,203.9 153.9,203.9 154.3,203.9 154.7,203.9 155.1,203.8 155.5,203.8 155.9,203.8 156.3,203.7 156.7,203.7 157.1,203.7 157.5,203.7 157.9,203.6 158.3,203.6 158.7,203.6 159.1,203.6 159.5,203.5 159.9,195.8 160.3,194.6 160.7,194.4 161.1,194.4 161.5,194.5 161.9,194.5 162.3,194.5 162.7,194.6 163.1,194.6 163.5,194.6 163.9,194.7 164.3,194.7 164.7,194.7 165.1,194.8 165.5,194.8 165.9,194.8 166.3,194.8 166.7,194.9 167.1,194.9 167.5,194.9 167.9,195.0 168.3,195.0 168.7,195.0 169.1,195.0 169.5,202.8 169.9,204.0 170.3,204.1 170.7,204.1 171.1,204.1 171.5,204.1 171.9,204.1 172.3,204.0 172.7,204.0 173.1,204.0 173.5,204.0 173.9,203.9 174.3,203.9 174.7,203.9 175.1,203.8 175.5,203.8 175.9,196.0 176.3,194.9 176.7,194.7 177.1,194.7 177.5,194.7 177.9,194.8 178.3,194.8 178.7,194.8 179.1,194.9 179.5,194.9 179.9,194.9 180.3,194.9 180.7,195.0 181.1,195.0 181.5,195.0 181.9,195.1 182.3,195.1 182.7,195.1 183.1,195.1 183.5,195.2 183.9,195.2 184.3,195.2 184.7,195.2 185.1,195.3 185.5,195.3 185.9,195.3 186.3,195.4 186.7,195.4 187.1,195.4 187.5,195.4 187.9,195.5 188.3,195.5 188.7,203.3 189.1,204.4 189.5,204.6 189.9,204.6 190.3,204.6 190.7,204.5 191.1,204.5 191.5,204.5 191.9,212.2 192.3,213.3 192.7,213.4 193.1,213.4 193.5,213.3 193.9,213.2 194.3,213.1 194.7,213.0 195.1,212.9 195.5,212.8 195.9,212.8 196.3,212.7 196.7,212.6 197.1,212.5 197.5,212.4 197.9,212.4 198.3,212.3 198.7,212.2 199.1,212.1 199.5,212.0 199.9,212.0 200.3,211.9 200.7,211.8 201.1,211.7 201.5,203.9 201.9,202.6 202.3,202.5 202.7,202.4 203.1,202.4 203.5,202.4 203.9,202.3 204.3,202.3 204.7,202.3 205.1,202.3 205.5,202.3 205.9,202.3 206.3,202.2 206.7,202.2 207.1,202.2 207.5,202.2 207.9,194.4 208.3,193.3 208.7,193.1 209.1,193.1 209.5,193.2 209.9,193.2 210.3,193.3 210.7,193.3 211.1,193.3 211.5,193.4 211.9,193.4 212.3,193.4 212.7,193.5 213.1,193.5 213.5,193.6 213.9,193.6 214.3,193.6 214.7,193.7 215.1,193.7 215.5,193.7 215.9,193.8 216.3,193.8 216.7,193.8 217.1,193.9 217.5,201.7 217.9,202.9 218.3,203.0 218.7,203.0 219.1,203.0 219.5,203.0 219.9,203.0 220.3,202.9 220.7,202.9 221.1,202.9 221.5,202.9 221.9,202.8 222.3,202.8 222.7,202.8 223.1,202.8 223.5,202.8 223.9,202.7 224.3,202.7 224.7,202.7 225.1,202.7 225.5,202.7 225.9,202.6 226.3,202.6 226.7,202.6 227.1,202.6 227.5,202.6 227.9,202.6 228.3,202.5 228.7,202.5 229.1,202.5 229.5,202.5 229.9,202.5 230.3,210.2 230.7,211.3 231.1,211.4 231.5,211.4 231.9,211.3 232.3,211.3 232.7,211.2 233.1,211.1 233.5,211.0 233.9,211.0 234.3,210.9 234.7,210.8 235.1,210.8 235.5,210.7 235.9,210.6 236.3,210.5 236.7,202.7 237.1,201.5 237.5,201.3 237.9,201.3 238.3,201.2 238.7,201.2 239.1,201.2 239.5,201.2 239.9,201.2 240.3,201.2 240.7,201.2 241.1,201.2 241.5,201.2 241.9,201.1 242.3,201.1 242.7,201.1 243.1,201.1 243.5,201.1 243.9,201.1 244.3,201.1 244.7,201.1 245.1,201.1 245.5,201.1 245.9,201.0 246.3,201.0 246.7,201.0 247.1,201.0 247.5,201.0 247.9,201.0 248.3,201.0 248.7,201.0 249.1,201.0 249.5,193.2 249.8,192.1 250.2,191.9 250.6,191.9 251.0,192.0 251.4,192.0 251.8,192.1 252.2,192.1 252.6,192.2 253.0,192.2 253.4,192.3 253.8,192.3 254.2,192.4 254.6,192.4 255.0,192.5 255.4,192.5 255.8,192.5 256.2,192.6 256.6,192.6 257.0,192.7 257.4,192.7 257.8,192.8 258.2,192.8 258.6,192.8 259.0,200.6 259.4,201.8 259.8,202.0 260.2,202.0 260.6,202.0 261.0,202.0 261.4,202.0 261.8,201.9 262.2,209.7 262.6,210.8 263.0,210.9 263.4,210.9 263.8,210.8 264.2,210.8 264.6,210.7 265.0,210.6 265.4,218.3 265.8,219.4 266.2,219.4 266.6,219.3 267.0,219.2 267.4,219.1 267.8,219.0 268.2,218.9 268.6,211.0 269.0,209.7 269.4,209.5 269.8,209.4 270.2,209.3 270.6,209.2 271.0,209.2 271.4,209.1 271.8,201.3 272.2,200.1 272.6,199.9 273.0,199.9 273.4,199.9 273.8,199.9 274.2,199.9 274.6,199.9 275.0,199.9 275.4,199.8 275.8,199.8 276.2,199.8 276.6,199.8 277.0,199.8 277.4,199.8 277.8,199.8 278.2,192.1 278.6,190.9 279.0,190.8 279.4,190.8 279.8,190.9 280.2,191.0 280.6,191.0 281.0,191.1 281.4,191.1 281.8,191.2 282.2,191.2 282.6,191.3 283.0,191.3 283.4,191.4 283.8,191.4 284.2,191.5 284.6,199.3 285.0,200.5 285.4,200.6 285.8,200.7 286.2,200.7 286.6,200.7 287.0,200.6 287.4,200.6 287.8,200.6 288.2,200.6 288.6,200.6 289.0,200.6 289.4,200.6 289.8,200.6 290.2,200.6 290.6,200.6 291.0,192.8 291.4,191.7 291.8,191.5 292.2,191.6 292.6,191.6 293.0,191.7 293.4,191.7 293.8,191.8 294.2,191.8 294.6,191.9 295.0,191.9 295.4,191.9 295.8,192.0 296.2,192.0 296.6,192.1 297.0,192.1 297.4,200.0 297.8,201.1 298.2,201.3 298.6,201.3 299.0,201.3 299.4,201.3 299.8,201.3 300.2,201.3 300.6,201.3 301.0,201.2 301.4,201.2 301.8,201.2 302.2,201.2 302.6,201.2 303.0,201.2 303.4,201.2 303.8,209.0 304.2,210.1 304.6,210.2 305.0,210.2 305.4,210.1 305.8,210.0 306.2,210.0 306.6,209.9 307.0,209.8 307.4,209.8 307.8,209.7 308.2,209.6 308.6,209.6 309.0,209.5 309.4,209.5 309.8,209.4 310.2,209.3 310.6,209.3 311.0,209.2 311.4,209.1 311.8,209.1 312.2,209.0 312.6,209.0 313.0,208.9 313.4,201.1 313.8,199.9 314.2,199.7 314.6,199.7 315.0,199.7 315.4,199.7 315.8,199.7 316.2,199.7 316.6,191.9 317.0,190.8 317.4,190.6 317.8,190.7 318.2,190.7 318.6,190.8 319.0,190.8 319.4,190.9 319.8,190.9 320.2,191.0 320.6,191.0 321.0,191.1 321.4,191.2 321.8,191.2 322.2,191.3 322.6,191.3 323.0,199.1 323.4,200.3 323.8,200.5 324.2,200.5 324.6,200.5 325.0,200.5 325.4,200.5 325.8,200.5 326.2,200.5 326.6,200.5 327.0,200.5 327.4,200.5 327.8,200.5 328.2,200.4 328.6,200.4 329.0,200.4 329.4,208.2 329.8,209.3 330.2,209.5 330.6,209.4 331.0,209.4 331.4,209.3 331.8,209.2 332.2,209.2 332.6,209.1 333.0,209.1 333.4,209.0 333.8,208.9 334.2,208.9 334.6,208.8 335.0,208.8 335.4,208.7 335.8,200.9 336.2,199.7 336.6,199.5 337.0,199.5 337.4,199.5 337.8,199.5 338.2,199.5 338.6,199.5 339.0,199.5 339.4,199.5 339.8,199.5 340.2,199.5 340.6,199.5 341.0,199.5 341.4,199.5 341.8,199.5 342.2,199.5 342.6,199.5 343.0,199.5 343.4,199.5 343.8,199.5 344.2,199.5 344.6,199.5 345.0,199.5 345.4,191.7 345.8,190.6 346.2,190.4 346.6,190.5 347.0,190.5 347.4,190.6 347.8,190.6 348.2,190.7 348.6,190.7 349.0,190.8 349.4,190.9 349.8,190.9 350.2,191.0 350.6,191.0 351.0,191.1 351.4,191.1 351.8,191.2 352.2,191.2 352.6,191.3 353.0,191.3 353.4,191.4 353.8,191.4 354.2,191.5 354.6,191.5 355.0,199.4 355.4,200.5 355.8,200.7 356.2,200.7 356.6,200.7 357.0,200.7 357.4,200.7 357.8,200.7 358.2,200.7 358.6,200.7 359.0,200.7 359.4,200.7 359.8,200.7 360.2,200.7 360.6,200.7 361.0,200.7 361.4,200.6 361.8,200.6 362.2,200.6 362.6,200.6 363.0,200.6 363.4,200.6 363.8,200.6 364.2,200.6 364.6,208.4 365.0,209.5 365.4,209.6 365.8,209.6 366.2,209.5 366.6,209.5 367.0,209.4 367.4,209.3 367.8,209.3 368.2,209.2 368.6,209.2 369.0,209.1 369.4,209.0 369.8,209.0 370.2,208.9 370.6,208.9 371.0,201.0 371.4,199.8 371.8,199.6 372.2,199.6 372.6,199.6 373.0,199.6 373.4,199.6 373.8,199.6 374.2,199.6 374.6,199.6 375.0,199.6 375.4,199.6 375.8,199.6 376.2,199.6 376.6,199.6 377.0,199.6 377.4,199.6 377.8,199.6 378.2,199.6 378.6,199.6 379.0,199.6 379.4,199.6 379.8,199.6 380.2,199.6 380.6,191.8 381.0,190.7 381.4,190.6 381.8,190.6 382.2,190.7 382.6,190.7 383.0,190.8 383.4,190.8 383.8,198.7 384.2,199.8 384.6,200.0 385.0,200.0 385.4,200.0 385.8,200.0 386.2,200.0 386.6,200.0 387.0,200.0 387.4,200.0 387.8,200.0 388.2,200.0 388.6,200.0 389.0,200.0 389.4,200.0 389.8,200.0 390.2,207.8 390.6,208.9 391.0,209.0 391.4,209.0 391.8,208.9 392.2,208.9 392.6,208.8 393.0,208.8 393.4,200.9 393.8,199.7 394.2,199.6 394.6,199.5 395.0,199.5 395.4,199.5 395.8,199.5 396.2,199.5 396.6,199.5 397.0,199.5 397.4,199.5 397.8,199.5 398.2,199.5 398.6,199.5 399.0,199.5 399.4,199.5 399.8,199.5 400.2,199.5 400.6,199.5 401.0,199.5 401.4,199.5 401.8,199.5 402.2,199.5 402.6,199.5 403.0,199.5 403.4,199.5 403.8,199.5 404.2,199.5 404.6,199.5 405.0,199.5 405.4,199.5 405.8,199.5 406.2,199.5 406.6,199.5 407.0,199.5 407.4,199.5 407.8,199.5 408.2,199.5 408.6,199.5 409.0,199.5 409.4,199.5 409.8,199.5 410.2,199.5 410.6,199.5 411.0,199.5 411.4,199.5 411.8,199.5 412.2,199.5 412.6,199.5 413.0,199.5 413.4,199.5 413.8,199.5 414.2,199.5 414.6,199.5 415.0,199.5 415.4,199.5 415.8,191.8 416.2,190.6 416.5,190.5 416.9,190.5 417.3,190.6 417.7,190.6 418.1,190.7 418.5,190.7 418.9,190.8 419.3,190.9 419.7,190.9 420.1,191.0 420.5,191.0 420.9,191.1 421.3,191.1 421.7,191.2 422.1,199.0 422.5,200.2 422.9,200.4 423.3,200.4 423.7,200.4 424.1,200.4 424.5,200.4 424.9,200.4 425.3,200.4 425.7,200.4 426.1,200.4 426.5,200.3 426.9,200.3 427.3,200.3 427.7,200.3 428.1,200.3 428.5,200.3 428.9,200.3 429.3,200.3 429.7,200.3 430.1,200.3 430.5,200.3 430.9,200.3 431.3,200.3 431.7,208.1 432.1,209.2 432.5,209.3 432.9,209.3 433.3,209.2 433.7,209.2 434.1,209.1 434.5,209.0 434.9,209.0 435.3,208.9 435.7,208.9 436.1,208.8 436.5,208.7 436.9,208.7 437.3,208.6 437.7,208.6 438.1,208.5 438.5,208.5 438.9,208.4 439.3,208.3 439.7,208.3 440.1,208.2 440.5,208.2 440.9,208.1 441.3,200.3 441.7,199.1 442.1,198.9 442.5,198.9 442.9,198.9 443.3,198.9 443.7,198.9 444.1,198.9 444.5,198.9 444.9,198.9 445.3,198.9 445.7,198.9 446.1,198.9 446.5,199.0 446.9,199.0 447.3,199.0 447.7,199.0 448.1,199.0 448.5,199.0 448.9,199.0 449.3,199.0 449.7,199.0 450.1,199.0 450.5,199.0 450.9,199.0 451.3,199.0 451.7,199.0 452.1,199.0 452.5,199.0 452.9,199.0 453.3,199.0 453.7,199.0 454.1,199.0 454.5,199.0 454.9,199.0 455.3,199.0 455.7,199.0 456.1,199.0 456.5,199.0 456.9,199.0 457.3,199.0 457.7,199.0 458.1,199.1 458.5,199.1 458.9,199.1 459.3,199.1 459.7,199.1 460.1,199.1 460.5,206.8 460.9,208.0 461.3,208.1 461.7,208.1 462.1,208.0 462.5,208.0 462.9,207.9 463.3,207.9 463.7,207.8 464.1,207.8 464.5,207.7 464.9,207.7 465.3,207.6 465.7,207.6 466.1,207.5 466.5,207.5 466.9,207.4 467.3,207.4 467.7,207.3 468.1,207.3 468.5,207.2 468.9,207.2 469.3,207.1 469.7,207.1 470.1,207.0 470.5,207.0 470.9,206.9 471.3,206.9 471.7,206.8 472.1,206.8 472.5,206.7 472.9,206.7 473.3,198.9 473.7,197.7 474.1,197.5 474.5,197.5 474.9,197.5 475.3,197.5 475.7,197.6 476.1,197.6 476.5,197.6 476.9,197.6 477.3,197.6 477.7,197.6 478.1,197.6 478.5,197.6 478.9,197.7 479.3,197.7 479.7,197.7 480.1,197.7 480.5,197.7 480.9,197.7 481.3,197.7 481.7,197.7 482.1,197.7 482.5,197.8 482.9,197.8 483.3,197.8 483.7,197.8 484.1,197.8 484.5,197.8 484.9,197.8 485.3,197.8 485.7,197.8 486.1,197.9 486.5,197.9 486.9,197.9 487.3,197.9 487.7,197.9 488.1,197.9 488.5,197.9 488.9,197.9 489.3,197.9 489.7,197.9 490.1,198.0 490.5,198.0 490.9,198.0 491.3,198.0 491.7,198.0 492.1,198.0 492.5,198.0 492.9,198.0 493.3,198.0 493.7,198.0 494.1,198.1 494.5,198.1 494.9,198.1 495.3,198.1 495.7,198.1 496.1,198.1 496.5,198.1 496.9,198.1 497.3,198.1 497.7,198.1 498.1,198.1 498.5,198.1 498.9,205.9 499.3,207.1 499.7,207.2 500.1,207.2 500.5,207.1 500.9,207.1 501.3,207.0 501.7,207.0 502.1,206.9 502.5,206.9 502.9,206.9 503.3,206.8 503.7,206.8 504.1,206.7 504.5,206.7 504.9,206.6 505.3,206.6 505.7,206.5 506.1,206.5 506.5,206.5 506.9,206.4 507.3,206.4 507.7,206.3 508.1,206.3 508.5,206.2 508.9,206.2 509.3,206.2 509.7,206.1 510.1,206.1 510.5,206.0 510.9,206.0 511.3,206.0 511.7,205.9 512.1,205.9 512.5,205.8 512.9,205.8 513.3,205.7 513.7,205.7 514.1,205.7 514.5,205.6 514.9,197.8 515.3,196.7 515.7,196.5 516.1,196.5 516.5,196.5 516.9,196.5 517.3,196.5 517.7,196.6 518.1,196.6 518.5,196.6 518.9,196.6 519.3,196.6 519.7,196.6 520.1,196.7 520.5,196.7 520.9,196.7 521.3,196.7 521.7,196.7 522.1,196.8 522.5,196.8 522.9,196.8 523.3,196.8 523.7,196.8 524.1,196.8 524.5,196.9 524.9,196.9 525.3,196.9 525.7,196.9 526.1,196.9 526.5,197.0 526.9,197.0 527.3,197.0 527.7,197.0 528.1,197.0 528.5,197.0 528.9,197.0 529.3,197.1 529.7,197.1 530.1,197.1 530.5,197.1 530.9,197.1 531.3,197.1 531.7,197.2 532.1,197.2 532.5,197.2 532.9,197.2 533.3,197.2 533.7,197.2 534.1,197.2 534.5,197.3 534.9,197.3 535.3,197.3 535.7,197.3 536.1,197.3 536.5,197.3 536.9,197.3 537.3,205.1 537.7,206.3 538.1,206.4 538.5,206.4 538.9,206.3 539.3,206.3 539.7,206.3 540.1,206.2 540.5,206.2 540.9,206.1 541.3,206.1 541.7,206.1 542.1,206.0 542.5,206.0 542.9,205.9 543.3,205.9 543.7,205.8 544.1,205.8 544.5,205.8 544.9,205.7 545.3,205.7 545.7,205.7 546.1,205.6 546.5,205.6 546.9,205.5 547.3,205.5 547.7,205.5 548.1,205.4 548.5,205.4 548.9,205.4 549.3,205.3 549.7,205.3 550.1,197.5 550.5,196.3 550.9,196.2 551.3,196.1 551.7,196.2 552.1,196.2 552.5,196.2 552.9,196.2 553.3,180.7 553.7,178.4 554.1,178.2 554.5,178.3 554.9,178.4 555.3,178.5 555.7,178.7 556.1,178.8 556.5,202.3 556.9,205.8 557.3,206.3 557.7,206.3 558.1,206.3 558.5,206.3 558.9,206.2 559.3,206.2 559.7,175.0 560.1,170.5 560.5,169.9 560.9,170.0 561.3,170.2 561.7,170.4 562.1,170.5 562.5,170.7 562.9,209.8 563.3,215.6 563.7,216.4 564.1,216.5 564.5,216.4 564.9,216.3 565.3,216.2 565.7,216.0 566.1,215.9 566.5,215.8 566.9,215.7 567.3,215.6 567.7,215.5 568.1,215.4 568.5,215.3 568.9,215.2 569.3,184.0 569.7,179.4 570.1,178.8 570.5,178.8 570.9,179.0 571.3,179.1 571.7,179.2 572.1,179.3 572.5,241.7 572.9,250.9 573.3,252.0 573.7,251.9 574.1,251.6 574.5,251.3 574.9,250.9 575.3,250.6 575.7,118.0 576.1,98.5 576.5,96.1 576.9,96.2 577.3,96.8 577.7,97.5 578.1,98.1 578.5,98.7 578.9,200.5 579.3,215.8 579.7,218.1 580.1,218.3 580.5,218.2 580.9,218.1 581.3,218.0 581.7,217.9 582.1,210.0 582.5,208.8 582.8,208.5 583.2,208.4 583.6,208.4 584.0,208.3 584.4,208.3 584.8,208.2 585.2,184.8 585.6,181.4 586.0,181.0 586.4,181.0 586.8,181.1 587.2,181.2 587.6,181.3 588.0,181.4 588.4,197.1 588.8,199.5 589.2,199.8 589.6,199.9 590.0,199.9 590.4,199.9 590.8,199.9 591.2,199.9 591.6,59.9 592.0,39.5 592.4,37.2 592.8,37.8 593.2,38.7 593.6,39.7 594.0,40.7 594.4,41.7 594.8,136.0 595.2,150.6 595.6,153.1 596.0,153.7 596.4,154.0 596.8,154.3 597.2,154.6 597.6,154.9 598.0,217.4 598.4,226.7 598.8,228.0 599.2,228.0 599.6,227.9 600.0,227.7 600.4,227.5 600.8,227.4 601.2,242.8 601.6,244.9 602.0,244.9 602.4,244.7 602.8,244.4 603.2,244.1 603.6,243.9 604.0,243.6 604.4,243.3 604.8,243.0 605.2,242.8 605.6,242.5 606.0,242.2 606.4,242.0 606.8,241.7 607.2,241.4 607.6,225.6 608.0,223.1 608.4,222.6 608.8,222.4 609.2,222.2 609.6,222.1 610.0,221.9 610.4,221.8 610.8,167.2 611.2,159.1 611.6,158.1 612.0,158.2 612.4,158.4 612.8,158.7 613.2,158.9 613.6,159.2 614.0,136.1 614.4,133.0 614.8,132.8 615.2,133.2 615.6,133.6 616.0,134.0 616.4,134.4 616.8,134.8 617.2,197.5 617.6,206.9 618.0,208.3 618.4,208.5 618.8,208.4 619.2,208.4 619.6,208.3 620.0,208.3 620.4,223.8 620.8,226.0 621.2,226.2 621.6,226.1 622.0,225.9 622.4,225.8 622.8,225.6 623.2,225.4 623.6,217.5 624.0,216.2 624.4,215.9 624.8,215.8 625.2,215.7 625.6,215.6 626.0,215.5 626.4,215.4 626.8,215.3 627.2,215.2 627.6,215.1 628.0,215.0 628.4,214.9 628.8,214.8 629.2,214.7 629.6,214.6 630.0,222.3 630.4,223.3 630.8,223.3 631.2,223.2 631.6,223.1 632.0,222.9 632.4,222.8 632.8,222.6 633.2,230.3 633.6,231.3 634.0,231.2 634.4,231.1 634.8,230.9 635.2,230.7 635.6,230.5 636.0,230.3 636.4,199.0 636.8,194.3 637.2,193.6 637.6,193.5 638.0,193.5 638.4,193.6 638.8,193.6 639.2,193.6 639.6,193.7 640.0,193.7 640.4,193.8 640.8,193.8 641.2,193.8 641.6,193.9 642.0,193.9 642.4,193.9 642.8,194.0 643.2,194.0 643.6,194.0 644.0,194.1 644.4,194.1 644.8,194.1 645.2,194.2 645.6,194.2 646.0,194.2 646.4,194.3 646.8,194.3 647.2,194.3 647.6,194.4 648.0,194.4 648.4,194.4 648.8,194.5 649.2,233.4 649.6,239.1 650.0,239.7 650.4,239.6 650.8,239.4 651.2,239.1 651.6,238.9 652.0,238.6 652.4,199.5 652.8,193.6 653.2,192.8 653.6,192.7 654.0,192.7 654.4,192.7 654.8,192.8 655.2,192.8 655.6,169.5 656.0,166.1 656.4,165.8 656.8,165.9 657.2,166.1 657.6,166.4 658.0,166.6 658.4,166.8 658.8,198.1 659.2,202.8 659.6,203.5 660.0,203.6 660.4,203.6 660.8,203.6 661.2,203.5 661.6,203.5 662.0,211.3 662.4,212.4 662.8,212.5 663.2,212.4 663.6,212.3 664.0,212.3 664.4,212.2 664.8,212.1 665.2,219.8 665.6,220.9 666.0,220.9 666.4,220.8 666.8,220.7 667.2,220.5 667.6,220.4 668.0,220.3 668.4,220.1 668.8,220.0 669.2,219.9 669.6,219.8 670.0,219.6 670.4,219.5 670.8,219.4 671.2,219.3 671.6,195.8 672.0,192.3 672.4,191.8 672.8,191.8 673.2,191.8 673.6,191.8 674.0,191.9 674.4,191.9 674.8,199.7 675.2,200.9 675.6,201.1 676.0,201.1 676.4,201.1 676.8,201.1 677.2,201.1 677.6,201.1 678.0,208.9 678.4,210.0 678.8,210.1 679.2,210.1 679.6,210.0 680.0,209.9 680.4,209.9 680.8,209.8 681.2,209.7 681.6,209.7 682.0,209.6 682.4,209.5 682.8,209.5 683.2,209.4 683.6,209.4 684.0,209.3 684.4,209.2 684.8,209.2 685.2,209.1 685.6,209.1 686.0,209.0 686.4,208.9 686.8,208.9 687.2,208.8 687.6,193.2 688.0,190.9 688.4,190.6 688.8,190.6 689.2,190.6 689.6,190.7 690.0,190.7 690.4,190.8 690.8,198.6 691.2,199.8 691.6,200.0 692.0,200.0 692.4,200.0 692.8,200.0 693.2,200.0 693.6,200.0 694.0,207.8 694.4,208.9 694.8,209.0 695.2,209.0 695.6,208.9 696.0,208.9 696.4,208.8 696.8,208.8 697.2,224.3 697.6,226.5 698.0,226.7 698.4,226.5 698.8,226.4 699.2,226.2 699.6,226.1 700.0,225.9 700.4,210.2 700.8,207.7 701.2,207.3 701.6,207.2 702.0,207.2 702.4,207.1 702.8,207.1 703.2,207.0 703.6,191.4 704.0,189.1 704.4,188.8 704.8,188.8 705.2,188.9 705.6,189.0 706.0,189.0 706.4,189.1 706.8,189.2 707.2,189.2 707.6,189.3 708.0,189.3 708.4,189.4 708.8,189.5 709.2,189.5 709.6,189.6 710.0,197.4 710.4,198.6 710.8,198.8 711.2,198.9 711.6,198.9 712.0,198.9 712.4,198.9 712.8,198.9 713.2,206.6 713.6,207.8 714.0,207.9 714.4,207.9 714.8,207.8 715.2,207.8 715.6,207.7 716.0,207.7 716.4,215.4 716.8,216.5 717.2,216.6 717.6,216.5 718.0,216.4 718.4,216.3 718.8,216.2 719.2,216.1 719.6,208.2 720.0,207.0 720.4,206.7 720.8,206.7 721.2,206.6 721.6,206.6 722.0,206.5 722.4,206.5 722.8,206.4 723.2,206.4 723.6,206.3 724.0,206.3 724.4,206.3 724.8,206.2 725.2,206.2 725.6,206.1 726.0,206.1 726.4,206.1 726.8,206.0 727.2,206.0 727.6,205.9 728.0,205.9 728.4,205.8 728.8,205.8 729.2,182.4 729.6,179.0 730.0,178.6 730.4,178.6 730.8,178.8 731.2,178.9 731.6,179.0 732.0,179.2 732.4,187.1 732.8,188.3 733.2,188.6 733.6,188.7 734.0,188.7 734.4,188.8 734.8,188.9 735.2,188.9 735.6,204.6 736.0,206.9 736.4,207.2 736.8,207.2 737.2,207.2 737.6,207.1 738.0,207.1 738.4,207.0 738.8,214.7 739.2,215.8 739.6,215.9 740.0,215.8 740.4,215.7 740.8,215.6 741.2,215.5 741.6,215.4 742.0,207.6 742.4,206.3 742.8,206.1 743.2,206.0 743.6,206.0 744.0,206.0 744.4,205.9 744.8,205.9 745.2,205.8 745.6,205.8 746.0,205.7 746.4,205.7 746.8,205.7 747.2,205.6 747.6,205.6 748.0,205.6 748.4,197.8 748.8,196.6 749.2,196.4 749.5,196.4 749.9,196.4 750.3,196.5 750.7,196.5 751.1,196.5 751.5,204.3 751.9,205.4 752.3,205.6 752.7,205.6 753.1,205.5 753.5,205.5 753.9,205.4 754.3,205.4 754.7,205.4 755.1,205.3 755.5,205.3 755.9,205.3 756.3,205.2 756.7,205.2 757.1,205.2 757.5,205.1 757.9,205.1 758.3,205.1 758.7,205.0 759.1,205.0 759.5,205.0 759.9,204.9 760.3,204.9 760.7,204.9 761.1,204.8 761.5,204.8 761.9,204.8 762.3,204.7 762.7,204.7 763.1,204.7 763.5,204.6 763.9,204.6 764.3,204.6 764.7,204.5 765.1,204.5 765.5,204.5 765.9,204.4 766.3,204.4 766.7,204.4 767.1,204.3 767.5,204.3 767.9,204.3 768.3,204.2 768.7,204.2 769.1,204.2 769.5,204.2 769.9,204.1 770.3,204.1 770.7,204.1 771.1,204.0 771.5,204.0 771.9,204.0 772.3,204.0 772.7,203.9 773.1,203.9 773.5,203.9 773.9,203.9 774.3,203.8 774.7,203.8 775.1,203.8 775.5,203.7 775.9,203.7 776.3,203.7 776.7,203.7 777.1,195.9 777.5,194.7 777.9,194.6 778.3,194.6 778.7,194.6 779.1,194.6 779.5,194.7 779.9,194.7 780.3,194.7 780.7,194.8 781.1,194.8 781.5,194.8 781.9,194.8 782.3,194.9 782.7,194.9 783.1,194.9 783.5,195.0 783.9,195.0 784.3,195.0 784.7,195.0 785.1,195.1 785.5,195.1 785.9,195.1 786.3,195.1 786.7,195.2 787.1,195.2 787.5,195.2 787.9,195.3 788.3,195.3 788.7,195.3 789.1,195.3 789.5,195.4 789.9,203.2 790.3,204.3 790.7,204.5 791.1,204.5 791.5,204.4 791.9,204.4 792.3,204.4 792.7,204.3 793.1,204.3 793.5,204.3 793.9,204.3 794.3,204.2 794.7,204.2 795.1,204.2 795.5,204.1 795.9,204.1 796.3,204.1 796.7,204.1 797.1,204.0 797.5,204.0 797.9,204.0 798.3,203.9 798.7,203.9 799.1,203.9 799.5,196.1 799.9,194.9 800.3,194.8 800.7,194.8 801.1,194.8 801.5,194.8 801.9,194.9 802.3,194.9 802.7,194.9 803.1,195.0 803.5,195.0 803.9,195.0 804.3,195.0 804.7,195.1 805.1,195.1 805.5,195.1 805.9,195.1 806.3,195.2 806.7,195.2 807.1,195.2 807.5,195.3 807.9,195.3 808.3,195.3 808.7,195.3 809.1,203.1 809.5,204.3 809.9,204.4 810.3,204.4 810.7,204.4 811.1,204.4 811.5,204.3 811.9,204.3 812.3,204.3 812.7,204.3 813.1,204.2 813.5,204.2 813.9,204.2 814.3,204.1 814.7,204.1 815.1,204.1 815.5,204.1 815.9,204.0 816.3,204.0 816.7,204.0 817.1,203.9 817.5,203.9 817.9,203.9 818.3,203.9 818.7,203.8 819.1,203.8 819.5,203.8 819.9,203.8 820.3,203.7 820.7,203.7 821.1,203.7 821.5,203.7 821.9,203.6 822.3,203.6 822.7,203.6 823.1,203.5 823.5,203.5 823.9,203.5 824.3,203.5 824.7,203.5 825.1,203.4 825.5,203.4 825.9,203.4 826.3,203.4 826.7,203.3 827.1,203.3 827.5,203.3 827.9,203.3 828.3,203.2 828.7,203.2 829.1,203.2 829.5,203.2 829.9,203.1 830.3,203.1 830.7,203.1 831.1,203.1 831.5,195.3 831.9,194.1 832.3,194.0 832.7,194.0 833.1,194.0 833.5,194.1 833.9,194.1 834.3,194.1 834.7,194.2 835.1,194.2 835.5,194.2 835.9,194.3 836.3,194.3 836.7,194.3 837.1,194.4 837.5,194.4 837.9,194.4 838.3,194.5 838.7,194.5 839.1,194.5 839.5,194.6 839.9,194.6 840.3,194.6 840.7,194.6 841.1,202.4 841.5,203.6 841.9,203.8 842.3,203.8 842.7,203.7 843.1,203.7 843.5,203.7 843.9,203.7 844.3,203.6 844.7,203.6 845.1,203.6 845.5,203.6 845.9,203.5 846.3,203.5 846.7,203.5 847.1,203.5 847.5,211.2 847.9,212.3 848.3,212.4 848.7,212.4 849.1,212.3 849.5,212.2 849.9,212.1 850.3,212.1 850.7,204.2 851.1,203.0 851.5,202.8 851.9,202.7 852.3,202.7 852.7,202.7 853.1,202.7 853.5,202.6 853.9,202.6 854.3,202.6 854.7,202.6 855.1,202.6 855.5,202.5 855.9,202.5 856.3,202.5 856.7,202.5 857.1,194.7 857.5,193.6 857.9,193.4 858.3,193.4 858.7,193.5 859.1,193.5 859.5,193.5 859.9,193.6 860.3,193.6 860.7,193.6 861.1,193.7 861.5,193.7 861.9,193.8 862.3,193.8 862.7,193.8 863.1,193.9 863.5,193.9 863.9,193.9 864.3,194.0 864.7,194.0 865.1,194.0 865.5,194.1 865.9,194.1 866.3,194.2 866.7,194.2 867.1,194.2 867.5,194.3 867.9,194.3 868.3,194.3 868.7,194.3 869.1,194.4 869.5,194.4 869.9,202.2 870.3,203.4 870.7,203.5 871.1,203.5 871.5,203.5 871.9,203.5 872.3,203.5 872.7,203.4 873.1,203.4 873.5,203.4 873.9,203.4 874.3,203.3 874.7,203.3 875.1,203.3 875.5,203.3 875.9,203.2 876.3,211.0 876.7,212.1 877.1,212.2 877.5,212.2 877.9,212.1 878.3,212.0 878.7,211.9 879.1,211.9 879.5,211.8 879.9,211.7 880.3,211.6 880.7,211.5 881.1,211.5 881.5,211.4 881.9,211.3 882.3,211.2 882.7,203.4 883.1,202.2 883.5,202.0 883.9,201.9 884.3,201.9 884.7,201.9 885.1,201.9 885.5,201.9 885.9,201.9 886.3,201.9 886.7,201.8 887.1,201.8 887.5,201.8 887.9,201.8 888.3,201.8 888.7,201.8 889.1,194.0 889.5,192.8 889.9,192.7 890.3,192.7 890.7,192.8 891.1,192.8 891.5,192.8 891.9,192.9 892.3,192.9 892.7,193.0 893.1,193.0 893.5,193.0 893.9,193.1 894.3,193.1 894.7,193.2 895.1,193.2 895.5,193.2 895.9,193.3 896.3,193.3 896.7,193.4 897.1,193.4 897.5,193.4 897.9,193.5 898.3,193.5 898.7,201.3 899.1,202.5 899.5,202.6 899.9,202.7 900.3,202.6 900.7,202.6 901.1,202.6 901.5,202.6 901.9,202.6 902.3,202.5 902.7,202.5 903.1,202.5 903.5,202.5 903.9,202.5 904.3,202.5 904.7,202.4 905.1,210.2 905.5,211.3 905.9,211.4 906.3,211.4 906.7,211.3 907.1,211.2 907.5,211.2 907.9,211.1 908.3,203.2 908.7,202.0 909.1,201.8 909.5,201.8 909.9,201.8 910.3,201.8 910.7,201.7 911.1,201.7 911.5,194.0 911.9,192.8 912.3,192.7 912.7,192.7 913.1,192.7 913.5,192.8 913.9,192.8 914.3,192.9 914.7,192.9 915.1,192.9 915.5,193.0 915.8,193.0 916.2,193.1 916.6,193.1 917.0,193.1 917.4,193.2 917.8,193.2 918.2,193.3 918.6,193.3 919.0,193.3 919.4,193.4 919.8,193.4 920.2,193.4 920.6,193.5 921.0,193.5 921.4,193.6 921.8,193.6 922.2,193.6 922.6,193.7 923.0,193.7 923.4,193.7 923.8,193.8 924.2,193.8 924.6,193.8 925.0,193.9 925.4,193.9 925.8,194.0 926.2,194.0 926.6,194.0 927.0,194.1 927.4,201.9 927.8,203.0 928.2,203.2 928.6,203.2 929.0,203.2 929.4,203.2 929.8,203.1 930.2,203.1 930.6,203.1 931.0,203.1 931.4,203.0 931.8,203.0 932.2,203.0 932.6,203.0 933.0,203.0 933.4,202.9 933.8,202.9 934.2,202.9 934.6,202.9 935.0,202.8 935.4,202.8 935.8,202.8 936.2,202.8 936.6,202.8 937.0,202.7 937.4,202.7 937.8,202.7 938.2,202.7 938.6,202.7 939.0,202.6 939.4,202.6 939.8,202.6 940.2,210.4 940.6,211.5 941.0,211.6 941.4,211.5 941.8,211.5 942.2,211.4 942.6,211.3 943.0,211.2 943.4,211.2 943.8,211.1 944.2,211.0 944.6,211.0 945.0,210.9 945.4,210.8 945.8,210.7 946.2,210.7 946.6,210.6 947.0,210.5 947.4,210.5 947.8,210.4 948.2,210.3 948.6,210.3 949.0,210.2 949.4,210.1 949.8,194.5 950.2,192.2 950.6,191.9 951.0,191.9 951.4,191.9 951.8,191.9 952.2,192.0 952.6,192.0 953.0,192.1 953.4,192.1 953.8,192.2 954.2,192.2 954.6,192.3 955.0,192.3 955.4,192.4 955.8,192.4 956.2,192.5 956.6,192.5 957.0,192.5 957.4,192.6 957.8,192.6 958.2,192.7 958.6,192.7 959.0,192.8 959.4,192.8 959.8,192.8 960.2,192.9 960.6,192.9 961.0,193.0 961.4,193.0 961.8,193.1 962.2,193.1 962.6,200.9 963.0,202.1 963.4,202.2 963.8,202.2 964.2,202.2 964.6,202.2 965.0,202.2 965.4,202.2 965.8,202.2 966.2,202.1 966.6,202.1 967.0,202.1 967.4,202.1 967.8,202.1 968.2,202.1 968.6,202.1 969.0,202.0 969.4,202.0 969.8,202.0 970.2,202.0 970.6,202.0 971.0,202.0 971.4,201.9 971.8,201.9 972.2,201.9 972.6,201.9 973.0,201.9 973.4,201.9 973.8,201.9 974.2,201.8 974.6,201.8 975.0,201.8 975.4,201.8 975.8,201.8 976.2,201.8 976.6,201.8 977.0,201.7 977.4,201.7 977.8,201.7 978.2,201.7 978.6,193.9 979.0,192.8 979.4,192.6 979.8,192.7 980.2,192.7 980.6,192.7 981.0,192.8 981.4,192.8 981.8,192.9 982.2,192.9 982.6,192.9 983.0,193.0 983.4,193.0 983.8,193.1 984.2,193.1 984.6,193.1 985.0,193.2 985.4,193.2 985.8,193.3 986.2,193.3 986.6,193.3 987.0,193.4 987.4,193.4 987.8,193.5 988.2,201.3 988.6,202.4 989.0,202.6 989.4,202.6 989.8,202.6 990.2,202.6 990.6,202.5 991.0,202.5 991.4,194.7 991.8,193.6 992.2,193.5 992.6,193.5 993.0,193.5 993.4,193.5 993.8,193.6 994.2,193.6 994.6,217.0 995.0,220.4 995.4,220.8 995.8,220.8 996.2,220.6 996.6,220.5 997.0,220.4 997.4,220.3 997.8,173.5 998.2,166.5 998.6,165.7 999.0,165.7" fill="none" stroke="#1d5fa5" stroke-width="1.2"/></svg>